<svg viewBox="0 0 108 29" xmlns="http://www.w3.org/2000/svg" data-logo="logo">
        <g transform="translate(0, 14.5) rotate(0)" id="logogram" style="opacity: 1;"></g>
        <g transform="translate(0, 1)" id="logotype" style="opacity: 1;"><path d="M0.34 7.89L12.82 7.89L12.82 11.81L0.34 11.81L0.34 7.89ZM8.82 27L3.71 27L3.71 6.42Q3.71 4.39 4.52 3.04Q5.33 1.69 6.73 1.01Q8.13 0.34 9.91 0.34L9.91 0.34Q11.13 0.34 12.13 0.54Q13.13 0.73 13.59 0.87L13.59 0.87L12.66 4.73Q12.34 4.65 11.90 4.56Q11.47 4.48 10.95 4.48L10.95 4.48Q9.79 4.48 9.31 5.03Q8.82 5.59 8.82 6.59L8.82 6.59L8.82 27ZM22.39 27.38L22.39 27.38Q19.51 27.38 17.41 26.14Q15.31 24.90 14.17 22.68Q13.04 20.47 13.04 17.53L13.04 17.53Q13.04 14.56 14.17 12.35Q15.31 10.13 17.41 8.89Q19.51 7.65 22.39 7.65L22.39 7.65Q25.27 7.65 27.37 8.89Q29.46 10.13 30.60 12.35Q31.73 14.56 31.73 17.53L31.73 17.53Q31.73 20.47 30.60 22.68Q29.46 24.90 27.37 26.14Q25.27 27.38 22.39 27.38ZM22.39 23.34L22.39 23.34Q23.75 23.34 24.68 22.58Q25.60 21.82 26.06 20.50Q26.52 19.17 26.52 17.52L26.52 17.52Q26.52 15.82 26.06 14.51Q25.60 13.19 24.68 12.44Q23.75 11.69 22.39 11.69L22.39 11.69Q21.02 11.69 20.10 12.44Q19.19 13.19 18.73 14.51Q18.27 15.82 18.27 17.52L18.27 17.52Q18.27 19.17 18.73 20.50Q19.19 21.82 20.10 22.58Q21.02 23.34 22.39 23.34ZM38.16 27L33.03 27L33.03 7.89L37.99 7.89L37.99 11.23L38.19 11.23Q38.72 9.45 39.96 8.54Q41.20 7.64 42.81 7.64L42.81 7.64Q43.20 7.64 43.66 7.68Q44.12 7.72 44.46 7.81L44.46 7.81L44.46 12.39Q44.12 12.27 43.47 12.20Q42.82 12.13 42.24 12.13L42.24 12.13Q41.08 12.13 40.14 12.64Q39.20 13.14 38.68 14.04Q38.16 14.93 38.16 16.13L38.16 16.13L38.16 27ZM53.14 17.48L49.66 21.41L49.66 15.24L50.43 15.24L56.68 7.89L62.61 7.89L54.36 17.48L53.14 17.48ZM50.14 27L45.01 27L45.01 1.54L50.14 1.54L50.14 27ZM62.97 27L56.94 27L51.20 18.63L54.63 14.99L62.97 27ZM73.73 27.32L73.73 27.32Q72.18 27.32 71.10 26.79Q70.03 26.27 69.35 25.49Q68.68 24.71 68.32 23.94L68.32 23.94L68.08 23.94L68.08 27L63.04 27L63.04 1.54L68.16 1.54L68.16 11.11L68.32 11.11Q68.68 10.35 69.33 9.55Q69.99 8.75 71.07 8.20Q72.15 7.65 73.77 7.65L73.77 7.65Q75.89 7.65 77.65 8.75Q79.41 9.84 80.46 12.03Q81.51 14.22 81.51 17.48L81.51 17.48Q81.51 20.66 80.48 22.86Q79.46 25.05 77.70 26.19Q75.94 27.32 73.73 27.32ZM72.16 23.21L72.16 23.21Q73.50 23.21 74.41 22.47Q75.32 21.74 75.79 20.44Q76.26 19.14 76.26 17.46L76.26 17.46Q76.26 15.79 75.79 14.51Q75.32 13.23 74.42 12.49Q73.51 11.76 72.16 11.76L72.16 11.76Q70.85 11.76 69.92 12.47Q69.00 13.17 68.52 14.45Q68.04 15.72 68.04 17.46L68.04 17.46Q68.04 19.19 68.53 20.48Q69.02 21.77 69.94 22.49Q70.86 23.21 72.16 23.21ZM87.95 27L82.82 27L82.82 7.89L87.95 7.89L87.95 27ZM85.39 5.40L85.39 5.40Q84.23 5.40 83.41 4.63Q82.58 3.86 82.58 2.77L82.58 2.77Q82.58 1.67 83.41 0.90Q84.23 0.13 85.39 0.13L85.39 0.13Q86.55 0.13 87.38 0.90Q88.21 1.66 88.21 2.77L88.21 2.77Q88.21 3.86 87.38 4.63Q86.55 5.40 85.39 5.40ZM95.16 15.94L95.16 15.94L95.16 27L90.03 27L90.03 7.89L94.87 7.89L94.96 12.66L94.65 12.66Q95.40 10.27 96.93 8.96Q98.46 7.65 100.89 7.65L100.89 7.65Q102.87 7.65 104.35 8.52Q105.83 9.38 106.64 11.00Q107.45 12.61 107.45 14.85L107.45 14.85L107.45 27L102.32 27L102.32 15.74Q102.32 13.96 101.41 12.95Q100.49 11.94 98.87 11.94L98.87 11.94Q97.79 11.94 96.95 12.41Q96.10 12.88 95.63 13.77Q95.16 14.66 95.16 15.94Z" fill="#FFF"></path></g>
        
      </svg>