<svg width="232" height="182" viewBox="0 0 232 182" fill="none" xmlns="http://www.w3.org/2000/svg">
<g filter="url(#filter0_dd_21_147)">
<rect x="6" y="6" width="220" height="170" rx="10" fill="#2A2725"/>
</g>
<path d="M100.333 111.833H129.5C130.605 111.833 131.665 111.394 132.446 110.613C133.228 109.832 133.667 108.772 133.667 107.667V80.5833L123.25 70.1666H104.5C103.395 70.1666 102.335 70.6056 101.554 71.387C100.772 72.1684 100.333 73.2282 100.333 74.3333V82.6666" stroke="#615FFF" stroke-width="1.5" stroke-linecap="round" stroke-linejoin="round"/>
<path d="M121.167 70.1666V78.5C121.167 79.605 121.606 80.6648 122.387 81.4462C123.168 82.2276 124.228 82.6666 125.333 82.6666H133.667" stroke="#615FFF" stroke-width="1.5" stroke-linecap="round" stroke-linejoin="round"/>
<path d="M102.417 91L96.1666 97.25L102.417 103.5" stroke="#615FFF" stroke-width="1.5" stroke-linecap="round" stroke-linejoin="round"/>
<path d="M110.75 103.5L117 97.25L110.75 91" stroke="#615FFF" stroke-width="1.5" stroke-linecap="round" stroke-linejoin="round"/>
<defs>
<filter id="filter0_dd_21_147" x="0" y="0" width="232" height="182" filterUnits="userSpaceOnUse" color-interpolation-filters="sRGB">
<feFlood flood-opacity="0" result="BackgroundImageFix"/>
<feColorMatrix in="SourceAlpha" type="matrix" values="0 0 0 0 0 0 0 0 0 0 0 0 0 0 0 0 0 0 127 0" result="hardAlpha"/>
<feOffset dy="2"/>
<feGaussianBlur stdDeviation="2"/>
<feColorMatrix type="matrix" values="0 0 0 0 0 0 0 0 0 0 0 0 0 0 0 0 0 0 0.08 0"/>
<feBlend mode="normal" in2="BackgroundImageFix" result="effect1_dropShadow_21_147"/>
<feColorMatrix in="SourceAlpha" type="matrix" values="0 0 0 0 0 0 0 0 0 0 0 0 0 0 0 0 0 0 127 0" result="hardAlpha"/>
<feOffset/>
<feGaussianBlur stdDeviation="3"/>
<feColorMatrix type="matrix" values="0 0 0 0 0 0 0 0 0 0 0 0 0 0 0 0 0 0 0.02 0"/>
<feBlend mode="normal" in2="effect1_dropShadow_21_147" result="effect2_dropShadow_21_147"/>
<feBlend mode="normal" in="SourceGraphic" in2="effect2_dropShadow_21_147" result="shape"/>
</filter>
</defs>
</svg>
