<svg width="665" height="493" viewBox="0 0 665 493" fill="none" xmlns="http://www.w3.org/2000/svg">
<g clip-path="url(#clip0_14_39)">
<path d="M447.067 420.925C409.543 420.925 368.766 415.347 328.264 404.623C278.177 391.36 232.253 371.341 195.457 346.729L196.546 345.099C233.169 369.591 278.886 389.519 328.766 402.726C373.842 414.663 419.255 420.193 460.081 418.734L460.151 420.693C455.839 420.849 451.478 420.926 447.067 420.925Z" fill="#F9FAFB"/>
<path d="M441.448 166.186C429.261 162.217 416.728 158.522 404.191 155.203C332.056 136.101 261.148 129.32 199.126 135.594L198.929 133.643C261.181 127.348 332.333 134.142 404.693 153.307C417.261 156.637 429.835 160.342 442.056 164.322L441.448 166.186Z" fill="#F9FAFB"/>
<path d="M110.902 318.782C80.8361 289.178 68.1372 258.293 75.1446 231.818C84.1338 197.843 124.086 174.352 184.749 167.369L184.973 169.318C125.153 176.204 85.8152 199.167 77.044 232.32C70.2247 258.086 82.7388 288.295 112.281 317.385L110.902 318.782Z" fill="#F9FAFB"/>
<path d="M518.658 408.758L518.029 406.9C551.589 395.55 572.58 377.268 578.731 354.026C586.551 324.481 569.562 290.197 530.896 257.488C492.032 224.613 435.988 197.334 373.085 180.678L373.585 178.782C436.759 195.51 493.076 222.93 532.157 255.99C571.435 289.216 588.648 324.211 580.623 354.528C574.299 378.436 552.871 397.187 518.658 408.758Z" fill="#F9FAFB"/>
<path d="M184.935 414.259C111.203 381.55 54.3863 339.115 24.9525 294.77L26.5864 293.687C55.8162 337.727 112.334 379.909 185.728 412.469L184.935 414.259Z" fill="#F9FAFB"/>
<path d="M477.82 328.979C482.152 328.979 485.664 325.466 485.664 321.133C485.664 316.8 482.152 313.287 477.82 313.287C473.488 313.287 469.976 316.8 469.976 321.133C469.976 325.466 473.488 328.979 477.82 328.979Z" fill="#E6E6E6"/>
<path d="M331.871 111.366C336.203 111.366 339.715 107.854 339.715 103.521C339.715 99.1878 336.203 95.6752 331.871 95.6752C327.539 95.6752 324.027 99.1878 324.027 103.521C324.027 107.854 327.539 111.366 331.871 111.366Z" fill="#E6E6E6"/>
<path d="M167.505 404.464C167.505 406.462 167.571 408.46 167.711 410.439C167.859 412.805 168.114 415.156 168.46 417.49C169.62 425.349 171.836 433.015 175.049 440.279L175.542 441.361L175.792 441.903C175.875 442.084 175.964 442.265 176.047 442.438C176.161 442.676 176.269 442.907 176.38 443.136C176.519 443.424 176.659 443.712 176.807 443.999C176.823 444.031 176.839 444.073 176.864 444.114C176.987 444.364 177.102 444.598 177.234 444.846C177.258 444.899 177.286 444.952 177.317 445.002C177.457 445.282 177.604 445.569 177.752 445.849C177.919 446.144 178.073 446.449 178.237 446.745C178.631 447.476 179.041 448.199 179.461 448.922C179.584 449.136 179.711 449.35 179.839 449.563C179.954 449.761 180.068 449.958 180.192 450.155C180.275 450.287 180.358 450.427 180.441 450.558C180.573 450.781 180.704 450.994 180.844 451.216C181.148 451.701 181.46 452.186 181.765 452.67H181.773C181.913 452.893 182.061 453.114 182.208 453.328V453.336C182.644 453.994 183.096 454.651 183.548 455.3C183.55 455.3 183.552 455.301 183.553 455.303C183.555 455.304 183.556 455.306 183.556 455.309C183.917 455.835 184.295 456.344 184.665 456.854V456.862C184.915 457.183 185.15 457.512 185.397 457.832C185.594 458.095 185.8 458.366 186.005 458.63C186.045 458.687 186.095 458.736 186.136 458.796V458.804C186.194 458.878 186.251 458.944 186.308 459.018C187.18 460.136 188.078 461.229 189.004 462.298L189.152 462.47C189.201 462.527 189.258 462.585 189.308 462.651C189.391 462.741 189.465 462.831 189.546 462.922C189.628 463.013 189.703 463.103 189.784 463.193C194.61 468.631 200.082 473.458 206.078 477.568C206.875 478.118 207.689 478.65 208.502 479.17C208.707 479.302 208.913 479.433 209.118 479.557C209.175 479.597 209.241 479.64 209.298 479.68C209.413 479.745 209.521 479.811 209.631 479.885C209.742 479.959 209.845 480.017 209.96 480.083C210.395 480.354 210.839 480.617 211.283 480.88C211.389 480.946 211.505 481.012 211.616 481.078C211.726 481.143 211.838 481.201 211.948 481.267C211.948 481.275 211.948 481.275 211.957 481.275H211.965V481.283H211.973C212.524 481.603 213.083 481.916 213.65 482.22C213.954 482.386 214.266 482.553 214.579 482.713C215.285 483.099 216 483.469 216.715 483.822C216.97 483.946 217.233 484.072 217.488 484.2C217.702 484.299 217.915 484.406 218.129 484.504C218.194 484.537 218.252 484.562 218.309 484.595C218.49 484.678 218.662 484.761 218.843 484.845C219.041 484.935 219.238 485.025 219.426 485.116C219.648 485.214 219.861 485.313 220.084 485.403C220.905 485.773 221.735 486.127 222.565 486.463C225.539 487.683 228.578 488.736 231.669 489.619C231.809 489.66 231.957 489.702 232.104 489.742C233.427 490.112 234.759 490.449 236.099 490.753C238.441 491.295 240.805 491.739 243.19 492.085H243.207L244.061 492.208C244.086 492.208 244.111 492.217 244.145 492.217C244.145 492.225 244.145 492.225 244.153 492.217L245.098 492.34C245.119 492.346 245.141 492.349 245.163 492.348C245.459 492.389 245.764 492.422 246.059 492.455L247.02 492.553L247.76 492.627C247.781 492.634 247.803 492.637 247.825 492.635C248.048 492.652 248.269 492.676 248.491 492.693H248.524L249.1 492.742C251.392 492.923 253.692 493.005 256.026 493.005C258.549 493.005 261.055 492.907 263.528 492.693H263.553L265.139 492.545C265.278 492.528 265.41 492.52 265.55 492.504C265.575 492.504 265.607 492.495 265.633 492.495C265.674 492.487 265.716 492.487 265.765 492.479C265.787 492.48 265.809 492.477 265.83 492.471C266.011 492.454 266.192 492.43 266.38 492.413L266.996 492.339C267.202 492.314 267.408 492.282 267.612 492.256C267.661 492.247 267.703 492.247 267.752 492.239C267.9 492.222 268.048 492.198 268.196 492.173L268.41 492.148C268.558 492.123 268.698 492.108 268.845 492.083H268.853C273.362 491.434 277.813 490.432 282.164 489.085C282.394 489.011 282.624 488.946 282.854 488.872C282.862 488.872 282.871 488.863 282.879 488.863C282.945 488.838 283.019 488.822 283.085 488.797C283.7 488.6 284.309 488.394 284.916 488.181C285.754 487.902 286.58 487.599 287.413 487.286C287.635 487.195 287.856 487.113 288.079 487.023C288.531 486.85 288.974 486.67 289.418 486.488C290.173 486.184 290.929 485.864 291.678 485.535C292.376 485.223 293.066 484.91 293.758 484.582C293.775 484.573 293.799 484.573 293.816 484.557C293.972 484.482 294.128 484.408 294.276 484.334H294.284C298.068 482.518 301.718 480.433 305.205 478.096C306.322 477.349 307.423 476.576 308.507 475.779C309.378 475.129 310.233 474.472 311.088 473.798C315.303 470.444 319.206 466.714 322.747 462.654V462.646C323.002 462.366 323.24 462.079 323.486 461.791C323.527 461.75 323.56 461.707 323.592 461.676C323.749 461.487 323.896 461.306 324.053 461.125V461.117C324.258 460.879 324.464 460.633 324.66 460.385C324.709 460.328 324.751 460.279 324.792 460.229V460.22C324.958 460.023 325.112 459.826 325.276 459.62C325.36 459.522 325.433 459.423 325.514 459.325V459.316C325.999 458.708 326.467 458.1 326.936 457.476C327.059 457.309 327.186 457.143 327.314 456.966C327.906 456.169 328.479 455.355 329.039 454.542V454.534C329.253 454.23 329.455 453.917 329.672 453.613L330.288 452.676C330.493 452.347 330.704 452.027 330.912 451.698L330.937 451.649C331.143 451.337 331.348 451.008 331.545 450.687C331.701 450.424 331.857 450.17 332.013 449.915C332.111 449.742 332.219 449.569 332.317 449.389C332.355 449.333 332.391 449.276 332.423 449.216L333.114 448.008C333.385 447.54 333.648 447.063 333.911 446.586C334.009 446.389 334.116 446.192 334.223 445.994C334.264 445.929 334.297 445.863 334.33 445.797C334.453 445.567 334.579 445.328 334.691 445.09C334.802 444.852 334.94 444.622 335.06 444.384C335.18 444.145 335.298 443.915 335.413 443.677C335.504 443.496 335.586 443.315 335.676 443.135C335.683 443.12 335.691 443.106 335.701 443.094C335.742 443.003 335.784 442.922 335.816 442.839C335.826 442.827 335.835 442.813 335.841 442.798C335.932 442.618 336.013 442.429 336.104 442.248C336.219 442.01 336.326 441.764 336.437 441.525C336.511 441.358 336.593 441.192 336.667 441.015C336.773 440.777 336.889 440.538 336.987 440.292C337.102 440.042 337.209 439.799 337.316 439.542C337.347 439.481 337.375 439.418 337.399 439.353C337.457 439.239 337.497 439.124 337.547 439.008C337.679 438.704 337.81 438.392 337.934 438.087C338.082 437.742 338.221 437.389 338.35 437.043C338.481 436.723 338.604 436.394 338.728 436.065L338.777 435.95C340.691 430.907 342.143 425.699 343.115 420.393V420.385C343.663 417.354 344.055 414.298 344.29 411.227C344.298 411.055 344.315 410.894 344.323 410.727C344.471 408.646 344.536 406.565 344.536 404.465C344.536 403.536 344.52 402.616 344.496 401.695C343.922 382.445 337.059 363.912 324.957 348.933C324.694 348.604 324.431 348.275 324.159 347.947C323.888 347.618 323.609 347.297 323.338 346.977C314.331 336.426 302.971 328.14 290.174 322.786C277.378 317.433 263.503 315.161 249.668 316.156C235.833 317.15 222.425 321.381 210.525 328.509C198.625 335.637 188.566 345.463 181.159 357.193C180.756 357.834 180.354 358.483 179.968 359.132C179.582 359.782 179.195 360.447 178.817 361.113C171.378 374.348 167.481 389.28 167.505 404.464Z" fill="#F2F2F2"/>
<path d="M221.195 355.884C221.13 355.872 221.065 355.863 221.001 355.851C221.273 355.683 221.529 355.49 221.766 355.275L221.195 355.884Z" fill="white"/>
<path d="M245.783 432.518H264.73L265.909 454.276L243.503 452.535L245.783 432.518Z" fill="#FFB9B9"/>
<path d="M209.202 479.798C210.052 480.262 210.912 480.708 211.772 481.13C212.078 481.278 212.395 481.426 212.701 481.585C212.958 481.704 213.215 481.834 213.472 481.951C213.555 481.99 213.62 482.02 213.689 482.06C213.906 482.159 214.114 482.258 214.331 482.356C214.569 482.465 214.806 482.574 215.033 482.683C215.3 482.801 215.557 482.92 215.824 483.029C216.813 483.473 217.811 483.899 218.809 484.304C222.388 485.771 226.045 487.039 229.764 488.101C229.93 488.151 230.11 488.2 230.287 488.25C231.879 488.694 233.481 489.099 235.092 489.466C237.91 490.119 240.754 490.653 243.625 491.068H243.645L244.672 491.216C244.702 491.216 244.732 491.226 244.772 491.226C244.772 491.236 244.771 491.236 244.781 491.226L245.918 491.374C245.945 491.382 245.974 491.385 246.002 491.384C246.358 491.434 246.723 491.473 247.08 491.513L248.236 491.631L249.126 491.72C249.152 491.729 249.179 491.733 249.205 491.73C249.473 491.75 249.739 491.779 250.006 491.799H250.046L250.738 491.859C253.496 492.076 256.264 492.175 259.072 492.175C262.107 492.175 265.122 492.056 268.098 491.799H268.128L270.035 491.621C270.202 491.601 270.362 491.591 270.53 491.572C270.56 491.572 270.599 491.562 270.629 491.562C270.678 491.552 270.728 491.552 270.787 491.542C270.814 491.543 270.84 491.54 270.866 491.532C271.083 491.512 271.301 491.483 271.532 491.463L272.273 491.374C272.523 491.344 272.768 491.305 273.015 491.275C273.074 491.265 273.124 491.265 273.181 491.255C273.36 491.235 273.538 491.206 273.715 491.172L273.972 491.142C274.15 491.112 274.318 491.093 274.497 491.059H274.507C279.932 490.278 285.287 489.071 290.522 487.45C290.799 487.36 291.076 487.283 291.355 487.192C290.078 481.238 287.45 475.657 283.674 470.88C279.897 466.103 275.073 462.259 269.575 459.644C270.935 458.348 271.875 456.673 272.274 454.837C272.531 453.654 272.551 452.432 272.334 451.24C272.117 450.049 271.667 448.913 271.009 447.896C269.726 445.925 267.713 444.545 265.413 444.059L250.764 440.994C248.406 440.534 245.961 441.024 243.962 442.357C241.962 443.69 240.57 445.759 240.087 448.113C239.938 448.835 239.871 449.572 239.889 450.309C225.771 459.714 215.617 469.455 209.202 479.798Z" fill="#615FFF"/>
<path d="M250.273 439.207C265.951 439.207 278.661 426.495 278.661 410.813C278.661 395.132 265.951 382.419 250.273 382.419C234.595 382.419 221.886 395.132 221.886 410.813C221.886 426.495 234.595 439.207 250.273 439.207Z" fill="#FFB9B9"/>
<path d="M232.58 435.292C229.552 433.224 226.461 429.249 224.398 426.27C221.663 422.355 219.781 417.908 218.874 413.218C217.967 408.528 218.056 403.701 219.134 399.047C219.478 397.187 220.323 395.455 221.578 394.04C222.914 392.716 225.099 392.089 226.731 393.025C226.285 391.832 226.089 390.56 226.155 389.289C226.22 388.017 226.545 386.772 227.109 385.631C228.256 383.353 229.918 381.373 231.964 379.849C235.875 376.836 240.528 374.939 245.431 374.359C250.333 373.778 255.301 374.536 259.807 376.552C261.58 377.373 258.667 371.026 260.523 371.64C262.367 372.354 264.417 372.318 266.234 371.539C267.982 370.66 273.766 375.882 273.096 374.046C274.42 374.647 275.571 375.575 276.441 376.741C277.311 377.907 277.872 379.274 278.072 380.716C278.271 382.157 278.103 383.626 277.582 384.984C277.061 386.343 276.205 387.548 275.093 388.487C273.629 389.724 271.799 390.436 270.195 391.484C267.385 393.462 265.396 396.401 264.603 399.745C263.811 403.089 264.27 406.608 265.894 409.638C264.206 408.553 262.354 407.748 260.409 407.254C259.434 407.016 258.416 407.014 257.44 407.249C256.463 407.484 255.557 407.949 254.797 408.604C254.162 409.332 253.682 410.182 253.387 411.101C253.091 412.021 252.987 412.991 253.081 413.953C253.144 415.879 253.603 417.778 253.654 419.704C253.805 425.359 256.833 436.11 252.45 439.116C248.986 441.491 236.711 438.116 232.58 435.292Z" fill="#2F2E41"/>
<path d="M660.137 210.51C660.137 212.508 660.071 214.506 659.931 216.485C659.783 218.852 659.528 221.202 659.182 223.536C658.022 231.395 655.806 239.061 652.592 246.326L652.1 247.408L651.85 247.951C651.767 248.131 651.678 248.312 651.595 248.485C651.48 248.723 651.373 248.954 651.262 249.184C651.123 249.472 650.983 249.759 650.835 250.047C650.819 250.079 650.803 250.121 650.778 250.162C650.655 250.412 650.54 250.646 650.408 250.894C650.384 250.947 650.356 251 650.325 251.05C650.185 251.33 650.037 251.617 649.89 251.897C649.723 252.192 649.569 252.497 649.405 252.793C649.011 253.524 648.601 254.247 648.181 254.97C648.058 255.184 647.931 255.397 647.803 255.611C647.688 255.809 647.573 256.006 647.45 256.203C647.367 256.335 647.284 256.475 647.201 256.606C647.069 256.829 646.938 257.042 646.798 257.264C646.494 257.749 646.182 258.234 645.877 258.718H645.869C645.729 258.941 645.581 259.162 645.434 259.376V259.384C644.998 260.042 644.546 260.699 644.094 261.348C644.092 261.348 644.09 261.349 644.088 261.351C644.087 261.352 644.086 261.354 644.086 261.357C643.725 261.883 643.347 262.392 642.977 262.902V262.91C642.727 263.231 642.492 263.559 642.245 263.88C642.048 264.143 641.842 264.414 641.636 264.678C641.596 264.735 641.546 264.784 641.505 264.844V264.852C641.448 264.926 641.39 264.992 641.333 265.066C640.462 266.184 639.563 267.277 638.638 268.346L638.489 268.518C638.44 268.575 638.383 268.633 638.333 268.699C638.25 268.789 638.176 268.879 638.095 268.97C638.013 269.061 637.938 269.151 637.857 269.241C633.031 274.679 627.559 279.506 621.563 283.616C620.767 284.166 619.953 284.698 619.139 285.218C618.934 285.35 618.728 285.481 618.523 285.604C618.466 285.645 618.4 285.688 618.343 285.728C618.228 285.793 618.121 285.859 618.01 285.933C617.899 286.007 617.796 286.065 617.681 286.131C617.246 286.402 616.802 286.665 616.359 286.928C616.252 286.994 616.136 287.06 616.026 287.126C615.915 287.191 615.803 287.249 615.693 287.314C615.693 287.323 615.693 287.323 615.684 287.323H615.676V287.331H615.668C615.117 287.651 614.559 287.964 613.991 288.268C613.688 288.434 613.375 288.601 613.062 288.761C612.356 289.147 611.641 289.516 610.926 289.87C610.671 289.993 610.408 290.12 610.154 290.248C609.94 290.347 609.727 290.454 609.513 290.552C609.447 290.585 609.389 290.61 609.332 290.643C609.151 290.726 608.979 290.809 608.798 290.893C608.6 290.983 608.403 291.073 608.215 291.164C607.993 291.262 607.78 291.361 607.557 291.451C606.736 291.821 605.906 292.175 605.076 292.511C602.102 293.73 599.063 294.784 595.972 295.667C595.832 295.708 595.684 295.75 595.537 295.79C594.214 296.16 592.882 296.497 591.542 296.801C589.2 297.343 586.837 297.787 584.451 298.133H584.434L583.58 298.256C583.555 298.256 583.531 298.265 583.496 298.265C583.496 298.273 583.496 298.273 583.488 298.265L582.543 298.388C582.522 298.394 582.5 298.397 582.478 298.396C582.182 298.437 581.878 298.47 581.582 298.503L580.621 298.601L579.882 298.675C579.86 298.682 579.838 298.685 579.816 298.683C579.594 298.7 579.372 298.724 579.15 298.741H579.118L578.542 298.79C576.25 298.971 573.95 299.053 571.616 299.053C569.093 299.053 566.587 298.955 564.114 298.741H564.089L562.503 298.593C562.364 298.576 562.232 298.568 562.092 298.552C562.067 298.552 562.035 298.543 562.009 298.543C561.968 298.535 561.926 298.535 561.877 298.527C561.855 298.528 561.833 298.525 561.812 298.518C561.631 298.502 561.45 298.478 561.262 298.461L560.646 298.387C560.44 298.362 560.234 298.329 560.03 298.304C559.981 298.295 559.939 298.295 559.89 298.287C559.742 298.27 559.594 298.246 559.446 298.221L559.232 298.196C559.084 298.171 558.944 298.155 558.797 298.131H558.789C554.28 297.482 549.829 296.48 545.478 295.133C545.248 295.059 545.018 294.994 544.788 294.919C544.78 294.919 544.771 294.911 544.763 294.911C544.697 294.886 544.623 294.87 544.557 294.845C543.941 294.648 543.333 294.442 542.726 294.229C541.888 293.95 541.062 293.647 540.229 293.334C540.007 293.243 539.786 293.161 539.563 293.07C539.111 292.898 538.668 292.718 538.224 292.536C537.468 292.232 536.713 291.912 535.964 291.583C535.266 291.271 534.576 290.958 533.884 290.63C533.867 290.621 533.843 290.621 533.826 290.605C533.67 290.53 533.514 290.456 533.366 290.382H533.358C529.574 288.566 525.924 286.481 522.437 284.144C521.32 283.397 520.219 282.624 519.134 281.827C518.263 281.177 517.408 280.519 516.554 279.846C512.338 276.492 508.435 272.762 504.894 268.702V268.694C504.64 268.414 504.402 268.127 504.155 267.839C504.114 267.798 504.081 267.755 504.049 267.724C503.892 267.535 503.745 267.354 503.588 267.173V267.165C503.383 266.927 503.177 266.681 502.98 266.433C502.931 266.376 502.889 266.327 502.848 266.277V266.268C502.682 266.071 502.528 265.874 502.364 265.668C502.281 265.57 502.208 265.471 502.126 265.373V265.364C501.642 264.757 501.173 264.148 500.704 263.524C500.581 263.357 500.455 263.191 500.326 263.014C499.735 262.217 499.161 261.403 498.601 260.59V260.582C498.387 260.278 498.185 259.965 497.968 259.661L497.353 258.724C497.147 258.395 496.936 258.075 496.728 257.746L496.703 257.697C496.498 257.385 496.292 257.056 496.095 256.735C495.938 256.472 495.783 256.218 495.626 255.963C495.528 255.79 495.421 255.617 495.322 255.437C495.284 255.381 495.248 255.324 495.216 255.264L494.526 254.056C494.255 253.588 493.992 253.111 493.729 252.634C493.63 252.437 493.523 252.24 493.416 252.042C493.376 251.977 493.342 251.911 493.31 251.845C493.187 251.615 493.06 251.376 492.949 251.138C492.837 250.9 492.699 250.67 492.579 250.432C492.459 250.193 492.341 249.963 492.226 249.725C492.135 249.544 492.054 249.363 491.963 249.182C491.957 249.167 491.948 249.154 491.938 249.141C491.897 249.05 491.855 248.969 491.823 248.886C491.813 248.874 491.805 248.86 491.798 248.846C491.708 248.665 491.626 248.476 491.535 248.295C491.421 248.057 491.313 247.811 491.202 247.572C491.128 247.405 491.046 247.239 490.973 247.062C490.866 246.824 490.751 246.585 490.652 246.339C490.537 246.089 490.43 245.846 490.323 245.59C490.292 245.528 490.265 245.465 490.24 245.401C490.183 245.286 490.142 245.171 490.092 245.055C489.961 244.751 489.829 244.439 489.706 244.134C489.558 243.789 489.419 243.436 489.29 243.09C489.158 242.77 489.035 242.441 488.912 242.112L488.863 241.997C486.948 236.954 485.496 231.747 484.525 226.44V226.432C483.976 223.401 483.584 220.345 483.349 217.274C483.341 217.102 483.324 216.941 483.317 216.775C483.169 214.693 483.103 212.612 483.103 210.512C483.103 209.583 483.12 208.663 483.144 207.743C483.717 188.492 490.58 169.96 502.683 154.981C502.946 154.652 503.209 154.323 503.48 153.995C503.752 153.666 504.03 153.345 504.302 153.025C513.309 142.474 524.669 134.188 537.465 128.834C550.262 123.481 564.137 121.209 577.972 122.204C591.807 123.198 605.215 127.429 617.115 134.557C629.015 141.685 639.074 151.511 646.481 163.241C646.883 163.882 647.286 164.531 647.673 165.18C648.059 165.83 648.445 166.495 648.823 167.161C656.266 180.395 660.165 195.329 660.143 210.513L660.137 210.51Z" fill="#F2F2F2"/>
<path d="M606.448 161.93C606.513 161.918 606.578 161.909 606.642 161.898C606.37 161.729 606.114 161.536 605.877 161.322L606.448 161.93Z" fill="white"/>
<path d="M556.852 246.551L579.296 244.085L584.637 263.75L563.381 268.74L556.852 246.551Z" fill="#ED9DA0"/>
<path d="M562.453 252.539C577.137 252.539 589.041 240.368 589.041 225.354C589.041 210.339 577.137 198.168 562.453 198.168C547.77 198.168 535.866 210.339 535.866 225.354C535.866 240.368 547.77 252.539 562.453 252.539Z" fill="#ED9DA0"/>
<path d="M619.191 287.832C618.421 288.254 617.642 288.657 616.86 289.041C616.583 289.175 616.296 289.31 616.019 289.453C615.786 289.561 615.553 289.677 615.321 289.786C615.249 289.822 615.187 289.849 615.123 289.884C614.926 289.974 614.738 290.063 614.541 290.153C614.326 290.252 614.111 290.351 613.905 290.449C613.663 290.556 613.43 290.664 613.188 290.762C612.293 291.165 611.388 291.55 610.484 291.917C607.243 293.246 603.93 294.395 600.562 295.357C600.409 295.402 600.248 295.447 600.087 295.491C598.645 295.894 597.194 296.261 595.735 296.592C593.183 297.183 590.607 297.667 588.007 298.043H587.989L587.058 298.177C587.031 298.177 587.004 298.186 586.968 298.186C586.968 298.195 586.968 298.195 586.959 298.186L585.929 298.32C585.906 298.327 585.882 298.33 585.858 298.33C585.536 298.374 585.204 298.413 584.881 298.446L583.834 298.553L583.028 298.637C583.005 298.645 582.98 298.648 582.956 298.646C582.714 298.663 582.473 298.691 582.231 298.708H582.195L581.569 298.762C579.072 298.96 576.563 299.049 574.019 299.049C571.273 299.049 568.539 298.941 565.843 298.708H565.822L564.094 298.547C563.942 298.528 563.798 298.52 563.646 298.502C563.62 298.502 563.584 298.493 563.556 298.493C563.511 298.484 563.466 298.484 563.413 298.474C563.389 298.475 563.365 298.472 563.342 298.465C563.144 298.448 562.948 298.42 562.741 298.403L562.07 298.32C561.846 298.293 561.622 298.257 561.398 298.23C561.344 298.22 561.3 298.22 561.246 298.212C561.084 298.194 560.924 298.167 560.762 298.141L560.529 298.114C560.368 298.087 560.215 298.069 560.055 298.042H560.045C555.132 297.335 550.281 296.242 545.539 294.773C545.289 294.69 545.039 294.621 544.79 294.54C545.946 289.147 548.326 284.091 551.746 279.764C555.167 275.438 559.536 271.955 564.516 269.586C563.284 268.412 562.433 266.896 562.071 265.233C561.839 264.161 561.82 263.054 562.017 261.974C562.214 260.895 562.622 259.866 563.218 258.945C564.38 257.16 566.202 255.911 568.286 255.47L581.553 252.694C583.689 252.277 585.904 252.72 587.715 253.928C589.526 255.136 590.787 257.009 591.225 259.142C591.36 259.796 591.42 260.463 591.404 261.13C604.182 269.641 613.38 278.463 619.191 287.832Z" fill="#615FFF"/>
<path d="M633.598 213.563C629.078 208.291 626.93 201.297 623.317 195.312C619.704 189.326 613.417 183.968 606.775 185.361C602.197 186.322 598.658 190.363 596.87 194.868C595.082 199.373 594.744 204.342 594.43 209.209C594.541 199.206 587.952 189.509 578.876 186.315C569.8 183.12 558.939 186.683 553.24 194.723C550.752 192.416 547.503 191.102 544.111 191.031C540.718 190.96 537.417 192.136 534.834 194.337C529.733 198.897 528.604 207.574 532.355 213.393C536.107 219.212 544.231 221.377 550.193 218.151L552.301 220.09C551.115 224.24 553.415 229.142 557.282 230.705C560.418 231.972 564.846 231.762 566.022 235.053C566.841 237.354 565.309 239.809 563.679 241.576C562.048 243.344 560.113 245.168 559.916 247.614C559.621 251.305 563.433 253.89 566.9 254.668C575.257 256.546 584.53 252.674 589.347 245.297C589.44 245.155 589.541 245.013 589.65 244.87C592.352 241.414 594.322 237.442 595.438 233.198C596.555 228.954 596.794 224.527 596.142 220.188C595.871 218.483 596.142 217.215 597.32 216.811C602.397 215.063 616.63 218.726 620.94 222.039C625.25 225.353 628.697 229.731 632.842 233.256C636.987 236.781 642.278 239.5 647.547 238.539C651.766 237.771 655.356 234.71 657.77 231.011C660.183 227.312 661.573 223.008 662.818 218.726C653.482 224.117 640.713 221.86 633.598 213.563Z" fill="#2F2E41"/>
<path d="M86.983 155.446C86.983 157.445 87.0487 159.443 87.1886 161.421C87.3367 163.788 87.5914 166.139 87.9377 168.473C89.0974 176.332 91.314 183.997 94.5272 191.262L95.02 192.344L95.2697 192.887C95.3529 193.068 95.442 193.249 95.5244 193.422C95.6392 193.66 95.7466 193.89 95.8573 194.12C95.9971 194.408 96.137 194.695 96.2843 194.983C96.3009 195.016 96.3167 195.058 96.3417 195.098C96.4649 195.348 96.5798 195.583 96.7113 195.83C96.7357 195.884 96.7635 195.936 96.7945 195.987C96.9343 196.266 97.0825 196.554 97.2298 196.833C97.3963 197.129 97.5503 197.434 97.7142 197.729C98.1088 198.461 98.5191 199.184 98.9386 199.907C99.0618 200.121 99.1883 200.334 99.3165 200.548C99.4313 200.745 99.5462 200.943 99.6694 201.14C99.7526 201.272 99.8358 201.411 99.9191 201.543C100.051 201.765 100.182 201.978 100.322 202.201C100.626 202.685 100.938 203.17 101.242 203.655H101.251C101.391 203.877 101.538 204.099 101.686 204.313V204.321C102.121 204.979 102.573 205.636 103.025 206.285C103.027 206.284 103.029 206.284 103.031 206.285C103.032 206.287 103.032 206.289 103.031 206.291C103.392 206.817 103.77 207.326 104.141 207.836V207.844C104.39 208.165 104.625 208.494 104.872 208.814C105.07 209.077 105.275 209.349 105.48 209.612C105.521 209.669 105.571 209.718 105.611 209.778V209.786C105.669 209.861 105.726 209.926 105.784 210C106.655 211.118 107.553 212.211 108.479 213.28L108.627 213.452C108.676 213.509 108.733 213.567 108.783 213.633C108.867 213.723 108.94 213.813 109.021 213.904C109.103 213.995 109.178 214.085 109.26 214.175C114.085 219.613 119.557 224.44 125.553 228.55C126.351 229.1 127.164 229.632 127.977 230.152C128.183 230.284 128.388 230.415 128.593 230.539C128.65 230.579 128.716 230.622 128.774 230.662C128.888 230.728 128.996 230.793 129.106 230.867C129.217 230.942 129.32 230.999 129.435 231.065C129.871 231.336 130.314 231.599 130.758 231.862C130.864 231.928 130.98 231.994 131.091 232.06C131.201 232.125 131.313 232.183 131.424 232.249C131.424 232.257 131.424 232.257 131.432 232.257H131.44V232.265H131.449C131.999 232.585 132.558 232.898 133.125 233.202C133.429 233.368 133.741 233.535 134.054 233.695C134.761 234.081 135.475 234.451 136.19 234.804C136.445 234.928 136.708 235.054 136.963 235.182C137.177 235.281 137.39 235.388 137.604 235.486C137.669 235.519 137.727 235.544 137.784 235.577C137.965 235.66 138.137 235.743 138.319 235.827C138.516 235.917 138.713 236.007 138.901 236.098C139.124 236.196 139.337 236.295 139.559 236.386C140.38 236.756 141.21 237.11 142.04 237.446C145.014 238.665 148.053 239.719 151.144 240.602C151.284 240.643 151.431 240.685 151.579 240.725C152.902 241.095 154.234 241.432 155.575 241.736C157.916 242.278 160.28 242.722 162.665 243.068H162.682L163.537 243.191C163.562 243.191 163.586 243.2 163.62 243.2C163.62 243.208 163.62 243.208 163.628 243.2L164.573 243.323C164.594 243.329 164.617 243.332 164.639 243.331C164.934 243.372 165.239 243.405 165.534 243.438L166.496 243.536L167.235 243.61C167.256 243.617 167.278 243.62 167.301 243.618C167.523 243.635 167.744 243.659 167.966 243.676H167.999L168.574 243.725C170.866 243.905 173.167 243.988 175.501 243.988C178.023 243.988 180.529 243.89 183.002 243.676H183.027L184.613 243.528C184.753 243.511 184.884 243.503 185.024 243.487C185.049 243.487 185.082 243.478 185.107 243.478C185.148 243.47 185.191 243.47 185.239 243.462C185.261 243.463 185.283 243.46 185.305 243.453C185.485 243.437 185.666 243.413 185.855 243.396L186.471 243.322C186.676 243.297 186.882 243.264 187.087 243.239C187.136 243.23 187.177 243.23 187.227 243.222C187.375 243.205 187.522 243.181 187.67 243.156L187.884 243.131C188.032 243.106 188.171 243.09 188.319 243.065H188.328C192.836 242.417 197.287 241.415 201.638 240.068C201.868 239.994 202.099 239.929 202.328 239.854C202.337 239.854 202.345 239.846 202.353 239.846C202.419 239.821 202.493 239.805 202.559 239.78C203.175 239.583 203.783 239.377 204.39 239.164C205.228 238.885 206.055 238.582 206.887 238.269C207.109 238.178 207.331 238.096 207.553 238.005C208.005 237.833 208.449 237.652 208.892 237.471C209.648 237.167 210.404 236.847 211.152 236.518C211.85 236.206 212.54 235.893 213.233 235.565C213.249 235.556 213.274 235.556 213.29 235.54C213.447 235.465 213.602 235.391 213.75 235.317H213.759C217.543 233.501 221.192 231.416 224.679 229.079C225.797 228.332 226.897 227.559 227.982 226.761C228.852 226.112 229.707 225.454 230.562 224.781C234.778 221.427 238.68 217.697 242.221 213.637V213.629C242.476 213.349 242.714 213.062 242.96 212.774C243.001 212.733 243.034 212.69 243.067 212.659C243.223 212.47 243.371 212.289 243.527 212.108V212.1C243.733 211.862 243.938 211.616 244.135 211.368C244.184 211.311 244.225 211.262 244.266 211.212V211.203C244.433 211.006 244.587 210.809 244.751 210.603C244.834 210.505 244.907 210.406 244.989 210.308V210.299C245.473 209.692 245.942 209.083 246.41 208.459C246.534 208.292 246.66 208.126 246.788 207.949C247.38 207.152 247.953 206.338 248.514 205.525V205.517C248.728 205.213 248.93 204.9 249.146 204.596L249.762 203.659C249.968 203.33 250.178 203.01 250.386 202.681L250.411 202.632C250.617 202.32 250.823 201.991 251.019 201.67C251.175 201.407 251.331 201.152 251.488 200.898C251.586 200.725 251.693 200.552 251.791 200.372C251.83 200.316 251.865 200.258 251.898 200.199L252.588 198.991C252.859 198.523 253.122 198.046 253.385 197.569C253.484 197.372 253.591 197.175 253.697 196.977C253.738 196.912 253.771 196.846 253.804 196.78C253.927 196.55 254.054 196.311 254.165 196.073C254.277 195.835 254.415 195.605 254.535 195.366C254.655 195.128 254.773 194.898 254.888 194.66C254.978 194.479 255.06 194.298 255.151 194.117C255.157 194.102 255.165 194.088 255.176 194.076C255.216 193.985 255.259 193.904 255.29 193.821C255.301 193.809 255.309 193.795 255.315 193.781C255.406 193.6 255.488 193.411 255.578 193.23C255.693 192.992 255.801 192.746 255.911 192.507C255.986 192.34 256.068 192.174 256.141 191.997C256.248 191.759 256.363 191.52 256.462 191.274C256.576 191.024 256.684 190.781 256.79 190.525C256.822 190.463 256.849 190.4 256.874 190.336C256.931 190.221 256.972 190.106 257.022 189.99C257.153 189.686 257.285 189.374 257.408 189.069C257.556 188.724 257.696 188.371 257.824 188.025C257.956 187.705 258.079 187.376 258.202 187.047L258.251 186.932C260.165 181.889 261.617 176.682 262.589 171.375V171.367C263.137 168.336 263.53 165.28 263.764 162.209C263.773 162.037 263.789 161.876 263.798 161.71C263.946 159.628 264.012 157.547 264.012 155.447C264.012 154.518 263.995 153.598 263.971 152.678C263.397 133.427 256.534 114.895 244.432 99.916C244.169 99.5872 243.906 99.2584 243.635 98.9295C243.363 98.6007 243.084 98.2801 242.813 97.9596C233.806 87.409 222.446 79.1229 209.65 73.7693C196.853 68.4157 182.978 66.1444 169.143 67.1385C155.308 68.1325 141.9 72.3642 130 79.4923C118.1 86.6204 108.041 96.4455 100.634 108.175C100.231 108.816 99.8292 109.466 99.443 110.115C99.0568 110.765 98.6706 111.43 98.2927 112.096C90.85 125.33 86.9509 140.263 86.973 155.447L86.983 155.446Z" fill="#F2F2F2"/>
<path d="M140.672 106.867C140.608 106.855 140.543 106.846 140.479 106.834C140.75 106.666 141.006 106.473 141.243 106.258L140.672 106.867Z" fill="white"/>
<path d="M170.839 179.161H191.481L190.602 205.902L167.239 204.072L170.839 179.161Z" fill="#9E616A"/>
<path d="M134.064 232.965C134.869 233.41 135.683 233.835 136.498 234.242C136.789 234.384 137.088 234.526 137.379 234.678C137.623 234.791 137.866 234.914 138.11 235.028C138.185 235.065 138.25 235.094 138.315 235.132C138.522 235.227 138.718 235.321 138.924 235.415C139.148 235.52 139.373 235.624 139.59 235.728C139.839 235.841 140.089 235.955 140.339 236.061C141.275 236.486 142.221 236.893 143.169 237.28C146.557 238.683 150.021 239.895 153.544 240.912C153.703 240.959 153.872 241.007 154.044 241.053C155.551 241.479 157.069 241.867 158.595 242.219C161.264 242.843 163.958 243.354 166.677 243.751H166.695L167.669 243.892C167.697 243.892 167.726 243.901 167.763 243.901C167.763 243.91 167.763 243.91 167.772 243.901L168.849 244.043C168.874 244.05 168.899 244.053 168.924 244.052C169.261 244.099 169.608 244.135 169.945 244.175L171.04 244.288L171.883 244.372C171.907 244.38 171.933 244.383 171.958 244.381C172.208 244.4 172.464 244.428 172.716 244.447H172.754L173.41 244.504C176.022 244.712 178.644 244.806 181.304 244.806C184.179 244.806 187.036 244.693 189.854 244.447H189.882L191.689 244.28C191.848 244.261 191.998 244.252 192.158 244.233C192.186 244.233 192.224 244.223 192.252 244.223C192.299 244.214 192.346 244.214 192.402 244.204C192.427 244.205 192.452 244.202 192.477 244.195C192.683 244.176 192.893 244.148 193.104 244.129L193.807 244.046C194.041 244.018 194.275 243.98 194.509 243.951C194.566 243.942 194.613 243.942 194.668 243.932C194.835 243.913 195.001 243.885 195.174 243.856L195.418 243.828C195.585 243.8 195.746 243.781 195.918 243.752H195.927C201.065 243.002 206.136 241.846 211.092 240.294C211.354 240.211 211.616 240.133 211.878 240.044C210.683 234.367 208.202 229.039 204.625 224.472C201.048 219.904 196.472 216.218 191.247 213.697C192.538 212.453 193.428 210.853 193.804 209.1C194.296 206.816 193.865 204.43 192.606 202.462C192.007 201.531 191.231 200.728 190.322 200.099C189.412 199.469 188.387 199.025 187.306 198.793L173.427 195.862C171.184 195.429 168.86 195.902 166.965 197.178C165.07 198.454 163.757 200.429 163.314 202.671C163.172 203.361 163.109 204.066 163.126 204.771C149.759 213.755 140.141 223.073 134.064 232.965Z" fill="#615FFF"/>
<path d="M177.005 194.367C193.375 194.367 206.645 181.094 206.645 164.721C206.645 148.348 193.375 135.075 177.005 135.075C160.636 135.075 147.366 148.348 147.366 164.721C147.366 181.094 160.636 194.367 177.005 194.367Z" fill="#9E616A"/>
<path d="M172.795 192.782C165.374 194.787 157.193 192.122 151.404 187.066C145.614 182.01 141.991 174.848 139.903 167.449C138.374 162.03 137.65 156.015 140.062 150.928C142.474 145.84 148.968 142.408 153.976 144.978C150.886 141.377 152.429 135.421 156.038 132.342C159.647 129.262 164.602 128.378 169.321 127.895C176.171 127.194 183.245 127.116 189.763 129.335C196.281 131.555 202.203 136.407 204.246 142.989C206.329 143.959 208.675 144.211 210.917 143.705C213.159 143.198 215.169 141.963 216.634 140.191C217.012 142.226 216.709 144.329 215.772 146.173C214.834 148.018 213.315 149.503 211.449 150.396L221.437 147.158C223.154 150.794 220.145 155.294 216.296 156.459C212.448 157.624 208.294 156.351 204.644 154.668C200.993 152.986 197.453 150.859 193.486 150.203C189.52 149.547 184.86 150.822 183.026 154.4C182.064 156.274 182.014 158.469 181.457 160.5C180.899 162.53 179.486 164.637 177.386 164.803C176.06 164.908 174.761 164.201 173.438 164.346C172.627 164.506 171.88 164.9 171.288 165.478C170.697 166.056 170.287 166.794 170.109 167.602C169.78 169.222 169.776 170.892 170.097 172.514L172.634 191.912L172.795 192.782Z" fill="#2F2E41"/>
<path d="M8.74704 265.986C9.91009 265.788 11.1028 265.853 12.2372 266.178C13.3716 266.502 14.4189 267.077 15.3017 267.859L15.3499 267.903L15.3949 267.864C16.2371 267.123 17.2275 266.571 18.2999 266.244C19.3724 265.917 20.5022 265.823 21.6141 265.967L21.937 266.015C23.3382 266.256 24.648 266.873 25.7275 267.799C26.8071 268.724 27.6163 269.925 28.0693 271.273C28.5224 272.621 28.6025 274.067 28.3011 275.456C27.9998 276.846 27.3282 278.129 26.3575 279.168L26.1211 279.411L26.0579 279.466L16.2647 289.168C16.0387 289.391 15.7393 289.525 15.4221 289.545C15.1048 289.565 14.7912 289.469 14.5392 289.275L14.4161 289.168L4.57373 279.412C3.5305 278.397 2.78855 277.113 2.43005 275.702C2.07155 274.291 2.11051 272.809 2.5426 271.419C2.97469 270.029 3.78306 268.785 4.87815 267.826C5.97324 266.868 7.31231 266.231 8.74704 265.986Z" fill="#615FFF"/>
<path d="M127.016 277.711C131.348 277.711 134.859 274.199 134.859 269.866C134.859 265.533 131.348 262.02 127.016 262.02C122.683 262.02 119.172 265.533 119.172 269.866C119.172 274.199 122.683 277.711 127.016 277.711Z" fill="#E6E6E6"/>
<path d="M460.667 164H459.583C459.009 164 458.458 164.211 458.051 164.586C457.645 164.961 457.417 165.47 457.417 166V171C457.417 171.53 457.188 172.039 456.782 172.414C456.376 172.789 455.825 173 455.25 173C455.825 173 456.376 173.211 456.782 173.586C457.188 173.961 457.417 174.47 457.417 175V180C457.417 181.1 458.392 182 459.583 182H460.667" stroke="#615FFF" stroke-width="2" stroke-linecap="round" stroke-linejoin="round"/>
<path d="M469.333 182H470.417C470.991 182 471.542 181.789 471.949 181.414C472.355 181.039 472.583 180.53 472.583 180V175C472.583 173.9 473.558 173 474.75 173C474.175 173 473.624 172.789 473.218 172.414C472.812 172.039 472.583 171.53 472.583 171V166C472.583 165.47 472.355 164.961 471.949 164.586C471.542 164.211 470.991 164 470.417 164H469.333" stroke="#615FFF" stroke-width="2" stroke-linecap="round" stroke-linejoin="round"/>
<path d="M357 188C358.657 188 360 186.657 360 185C360 183.343 358.657 182 357 182C355.343 182 354 183.343 354 185C354 186.657 355.343 188 357 188Z" stroke="#615FFF" stroke-width="2" stroke-linecap="round" stroke-linejoin="round"/>
<path d="M351 176C352.657 176 354 174.657 354 173C354 171.343 352.657 170 351 170C349.343 170 348 171.343 348 173C348 174.657 349.343 176 351 176Z" stroke="#615FFF" stroke-width="2" stroke-linecap="round" stroke-linejoin="round"/>
<path d="M363 176C364.657 176 366 174.657 366 173C366 171.343 364.657 170 363 170C361.343 170 360 171.343 360 173C360 174.657 361.343 176 363 176Z" stroke="#615FFF" stroke-width="2" stroke-linecap="round" stroke-linejoin="round"/>
<path d="M363 176V177C363 177.53 362.789 178.039 362.414 178.414C362.039 178.789 361.53 179 361 179H353C352.47 179 351.961 178.789 351.586 178.414C351.211 178.039 351 177.53 351 177V176" stroke="#615FFF" stroke-width="2" stroke-linecap="round" stroke-linejoin="round"/>
<path d="M357 179V182" stroke="#615FFF" stroke-width="2" stroke-linecap="round" stroke-linejoin="round"/>
<path d="M491 427C492.657 427 494 425.657 494 424C494 422.343 492.657 421 491 421C489.343 421 488 422.343 488 424C488 425.657 489.343 427 491 427Z" stroke="#615FFF" stroke-width="2" stroke-linecap="round" stroke-linejoin="round"/>
<path d="M485 415C486.657 415 488 413.657 488 412C488 410.343 486.657 409 485 409C483.343 409 482 410.343 482 412C482 413.657 483.343 415 485 415Z" stroke="#615FFF" stroke-width="2" stroke-linecap="round" stroke-linejoin="round"/>
<path d="M497 415C498.657 415 500 413.657 500 412C500 410.343 498.657 409 497 409C495.343 409 494 410.343 494 412C494 413.657 495.343 415 497 415Z" stroke="#615FFF" stroke-width="2" stroke-linecap="round" stroke-linejoin="round"/>
<path d="M497 415V416C497 416.53 496.789 417.039 496.414 417.414C496.039 417.789 495.53 418 495 418H487C486.47 418 485.961 417.789 485.586 417.414C485.211 417.039 485 416.53 485 416V415" stroke="#615FFF" stroke-width="2" stroke-linecap="round" stroke-linejoin="round"/>
<path d="M491 418V421" stroke="#615FFF" stroke-width="2" stroke-linecap="round" stroke-linejoin="round"/>
<path d="M129 315L132.09 321.26L139 322.27L134 327.14L135.18 334.02L129 330.77L122.82 334.02L124 327.14L119 322.27L125.91 321.26L129 315Z" stroke="#615FFF" stroke-width="2" stroke-linecap="round" stroke-linejoin="round"/>
</g>
<defs>
<clipPath id="clip0_14_39">
<rect width="665" height="493" fill="white"/>
</clipPath>
</defs>
</svg>
